# xmcd CD database file generated by Grip 2.94
# 
# Track frame offsets:
#       182
#       14952
#       31545
#       46205
#       62212
#       80750
#       98215
#       112900
#       129705
#       145475
#       161835
#       174752
# 
# Disc length: 2526 seconds
# 
# Revision: 3
# Processed by: cddbd v1.4b42PL0 Copyright (c) Steve Scherf et al.
# Submitted via: Grip 2.94
# 
DISCID=a109dc0c
DTITLE=Ian Tyson - Eighteen Inches of Rain
DYEAR=1900
DGENRE=
TTITLE0=Horse Theif Moon
TTITLE1=Heartaches are Stealin'
TTITLE2=Eighteen Inches of Rain
TTITLE3=M. C. Horses
TTITLE4=Big Horns
TTITLE5=Rodeo Road
TTITLE6=Chasin' the Moon
TTITLE7=Nobody Thought it Would
TTITLE8=Old House
TTITLE9=Alcohol in the Bloodstream
TTITLE10=Old Corrals and Sagebrush
TTITLE11='til the Circle is Through
EXTD=
EXTT0=
EXTT1=
EXTT2=
EXTT3=
EXTT4=
EXTT5=
EXTT6=
EXTT7=
EXTT8=
EXTT9=
EXTT10=
EXTT11=
PLAYORDER=
